<svg xmlns="http://www.w3.org/2000/svg" width="200" height="200" fill="none">
    <path fill="currentColor" fill-rule="evenodd"
        d="M99.525 10.417h.95c19.241 0 34.316 0 46.083 1.583 12.033 1.617 21.533 5 28.992 12.45 7.458 7.458 10.833 16.958 12.45 29 1.583 11.758 1.583 26.833 1.583 46.075v.95c0 19.242 0 34.317-1.583 46.083-1.617 12.034-5 21.534-12.45 28.992-7.459 7.458-16.958 10.833-29 12.45-11.758 1.583-26.834 1.583-46.075 1.583h-.95c-19.242 0-34.317 0-46.084-1.583-12.033-1.617-21.533-5-28.991-12.45-7.459-7.458-10.833-16.958-12.45-29-1.584-11.758-1.584-26.833-1.584-46.075v-.95c0-19.242 0-34.317 1.584-46.083 1.617-12.034 5-21.534 12.45-28.992 7.458-7.458 16.958-10.833 29-12.45 11.758-1.583 26.833-1.583 46.075-1.583ZM55.108 24.383c-10.65 1.434-17.075 4.167-21.816 8.909-4.75 4.75-7.476 11.166-8.909 21.825-1.45 10.833-1.466 25.066-1.466 44.883 0 19.817.016 34.05 1.466 44.883 1.434 10.659 4.167 17.084 8.909 21.834 4.75 4.741 11.166 7.466 21.825 8.9 10.833 1.45 25.066 1.466 44.883 1.466 19.816 0 34.05-.016 44.883-1.466 10.658-1.434 17.084-4.167 21.834-8.909 4.741-4.75 7.466-11.166 8.899-21.825 1.45-10.833 1.467-25.066 1.467-44.883 0-19.817-.017-34.05-1.467-44.883-1.433-10.659-4.166-17.084-8.908-21.834-4.75-4.741-11.167-7.466-21.825-8.9-10.833-1.45-25.067-1.466-44.883-1.466-19.817 0-34.058.016-44.892 1.466ZM87.641 53.8a6.25 6.25 0 0 1 .217 8.842l-23.808 25a6.25 6.25 0 0 1-9.05 0l-9.525-10a6.25 6.25 0 1 1 9.05-8.617l5 5.25 19.283-20.25a6.25 6.25 0 0 1 4.372-1.937 6.242 6.242 0 0 1 4.461 1.712ZM102.083 75a6.25 6.25 0 0 1 6.25-6.25H150a6.25 6.25 0 0 1 0 12.5h-41.667a6.25 6.25 0 0 1-6.25-6.25Zm-14.442 37.142a6.243 6.243 0 0 1 .217 8.833l-23.808 25a6.257 6.257 0 0 1-4.525 1.939A6.254 6.254 0 0 1 55 145.975l-9.525-10a6.25 6.25 0 1 1 9.05-8.617l5 5.25 19.283-20.25a6.254 6.254 0 0 1 4.372-1.937 6.254 6.254 0 0 1 4.461 1.721Zm14.442 21.191a6.25 6.25 0 0 1 6.25-6.25H150a6.25 6.25 0 0 1 0 12.5h-41.667a6.25 6.25 0 0 1-6.25-6.25Z"
        clip-rule="evenodd" />
</svg>