<svg xmlns="http://www.w3.org/2000/svg" width="200" height="200" fill="none">
    <path fill="currentColor"
        d="M106.25 16.667V62.16l70.727 23.576-3.954 11.86-66.773-22.258v103.828h-12.5V75.338L26.977 97.596l-3.954-11.86L93.75 62.162V16.667h12.5Z" />
    <path fill="currentColor"
        d="M32.737 115.445c6.429 32.24 32.656 49.486 51.37 57.828l.885.391.002.001c3.095 1.352 4.882 2.117 6.872 2.628 1.9.487 4.22.791 8.134.791 3.919 0 6.238-.305 8.137-.791 1.989-.51 3.773-1.276 6.869-2.628l.008-.004a118.455 118.455 0 0 0 15.027-7.865 6.25 6.25 0 1 1 6.585 10.625 131.061 131.061 0 0 1-16.623 8.702l-.001-.001c-2.909 1.271-5.626 2.475-8.761 3.279-3.228.828-6.66 1.183-11.241 1.183-4.577 0-8.008-.355-11.237-1.183-3.138-.804-5.859-2.009-8.772-3.281l-.943-.416c-20-8.913-50.938-28.542-58.57-66.816l12.26-2.443Zm136.013-15.52V86.808c0-13.404-.003-23.19-.385-30.2-.191-3.5-.467-6.095-.831-7.983-.18-.933-.364-1.604-.531-2.072-.169-.473-.281-.63-.267-.61l-.002-.002a3.226 3.226 0 0 0-.45-.419c-.372-.302-.929-.69-1.737-1.16-1.638-.95-3.972-2.046-7.193-3.355-6.454-2.621-15.647-5.772-28.252-10.085l-4.775-1.633-.003-.001c-13.45-4.61-18.838-6.371-24.324-6.371-5.478 0-10.875 1.762-24.324 6.37l-.013.005-4.764 1.62C58.293 35.23 49.1 38.382 42.647 41.005c-3.222 1.31-5.556 2.407-7.194 3.358-.808.47-1.365.857-1.737 1.16a3.31 3.31 0 0 0-.45.418l-.002.002c.014-.021-.098.136-.267.61-.167.468-.351 1.139-.531 2.072-.365 1.889-.64 4.485-.831 7.985-.382 7.012-.385 16.798-.385 30.198v4.859l-.008.32a6.25 6.25 0 0 1-12.484 0l-.008-.32v-4.859c0-13.241-.002-23.443.403-30.879.203-3.723.518-6.968 1.04-9.672.501-2.6 1.3-5.303 2.843-7.5 1.56-2.22 3.855-3.876 6.14-5.204 2.378-1.38 5.33-2.732 8.764-4.128 6.86-2.787 16.458-6.072 28.91-10.338l.011-.003 4.763-1.622 4.526-1.548c10.065-3.426 16.816-5.497 23.85-5.497 8.047 0 15.708 2.704 28.373 7.045l4.774 1.632.001.001c12.453 4.262 22.051 7.545 28.911 10.331 3.435 1.396 6.387 2.747 8.764 4.127 2.287 1.328 4.582 2.984 6.141 5.204 1.544 2.197 2.342 4.899 2.844 7.5.521 2.703.836 5.946 1.039 9.67.405 7.434.403 17.636.403 30.881v13.117c0 22.394-7.522 39.835-18.008 53.143a6.25 6.25 0 0 1-9.818-7.736c8.897-11.292 15.326-26.05 15.326-45.407ZM25.386 110.538a6.25 6.25 0 0 1 7.351 4.907l-12.259 2.443a6.25 6.25 0 0 1 4.908-7.35Z" />
</svg>