<svg xmlns="http://www.w3.org/2000/svg" width="200" height="200" fill="none"><path fill="#000" d="M168.75 71.875a3.129 3.129 0 0 0-3.125-3.125H143.75V150a12.501 12.501 0 0 0 25 0V71.875ZM112.5 131.25a6.25 6.25 0 1 1 0 12.5H50a6.25 6.25 0 1 1 0-12.5h62.5Zm0-25a6.25 6.25 0 1 1 0 12.5H50a6.25 6.25 0 1 1 0-12.5h62.5Zm-37.5-50a6.25 6.25 0 0 1 6.25 6.25v25A6.25 6.25 0 0 1 75 93.75H50a6.25 6.25 0 0 1-6.25-6.25v-25A6.25 6.25 0 0 1 50 56.25h25Zm37.5 25a6.25 6.25 0 1 1 0 12.5H100a6.25 6.25 0 1 1 0-12.5h12.5Zm-56.25 0h12.5v-12.5h-12.5v12.5Zm56.25-25a6.25 6.25 0 1 1 0 12.5H100a6.25 6.25 0 1 1 0-12.5h12.5Zm18.75-15.625a3.129 3.129 0 0 0-3.125-3.125h-93.75a3.128 3.128 0 0 0-3.125 3.125V150a12.5 12.5 0 0 0 12.5 12.5h90.852a24.993 24.993 0 0 1-3.352-12.5V40.625Zm12.5 15.625h21.875c8.627 0 15.625 6.998 15.625 15.625V150a25 25 0 0 1-24.379 24.992l-.621.008H43.75a25.001 25.001 0 0 1-25-25V40.625C18.75 31.998 25.748 25 34.375 25h93.75c8.627 0 15.625 6.998 15.625 15.625V56.25Z"/></svg>