<svg xmlns="http://www.w3.org/2000/svg" width="200" height="200" fill="none"><path fill="#000" d="M164.583 141.075V83.334c0-15.89-.013-27.179-1.165-35.742-1.127-8.384-3.242-13.214-6.769-16.738-3.53-3.526-8.362-5.64-16.744-6.77-8.563-1.152-19.85-1.167-35.738-1.167h-8.334c-15.889 0-27.178.013-35.742 1.165-8.384 1.127-13.213 3.242-16.737 6.77-3.526 3.529-5.641 8.361-6.77 16.743-1.152 8.563-1.168 19.85-1.168 35.739V162.5a6.25 6.25 0 0 1-12.5 0V83.334c0-15.537-.01-27.817 1.28-37.407 1.316-9.769 4.085-17.674 10.316-23.91 6.235-6.24 14.143-9.01 23.913-10.324 9.59-1.29 21.873-1.276 37.409-1.276h8.333c15.536 0 27.816-.011 37.406 1.28 9.769 1.315 17.674 4.084 23.911 10.315 6.239 6.235 9.008 14.143 10.322 23.913 1.29 9.591 1.277 21.873 1.277 37.409v57.741a6.25 6.25 0 1 1-12.5 0Z"/><path fill="#000" d="M22.916 162.5A27.084 27.084 0 0 1 50 135.417h120.834a6.25 6.25 0 1 1 0 12.5H49.999a14.582 14.582 0 0 0-10.311 24.895 14.583 14.583 0 0 0 10.311 4.272h120.834a6.25 6.25 0 1 1 0 12.5H49.999A27.084 27.084 0 0 1 22.916 162.5Z"/><path fill="#000" d="M143.749 162.5a27.082 27.082 0 0 1 27.084-27.083 6.25 6.25 0 1 1 0 12.5 14.583 14.583 0 1 0 0 29.166 6.25 6.25 0 1 1 0 12.5 27.082 27.082 0 0 1-27.084-27.083ZM100.05 93.75a6.25 6.25 0 0 1 0 12.5H100a6.25 6.25 0 1 1 0-12.5h.05Zm-.1-23.967a42.09 42.09 0 0 1 21.337 5.814 6.25 6.25 0 0 1-6.34 10.773 29.586 29.586 0 0 0-14.998-4.087c-5.338 0-10.41 1.44-14.961 4.065a6.25 6.25 0 1 1-6.242-10.83c6.348-3.659 13.559-5.735 21.204-5.735Zm.008-26.033c13.795 0 26.569 4.751 37.155 12.79a6.25 6.25 0 1 1-7.56 9.954c-8.597-6.528-18.756-10.244-29.594-10.244-10.821 0-20.94 3.687-29.52 10.183a6.25 6.25 0 1 1-7.545-9.966c10.57-8.004 23.302-12.717 37.065-12.717Z"/></svg>