<svg xmlns="http://www.w3.org/2000/svg" width="200" height="200" fill="none">
    <path fill="currentColor"
        d="M177.186 21.7a7.688 7.688 0 0 0-7.166-.83 143.645 143.645 0 0 1-38.74 10.376 87.897 87.897 0 0 1-23.888-10.376A91.867 91.867 0 0 0 76.234 8.833a207.888 207.888 0 0 0-51.93 11.414 7.778 7.778 0 0 0-5.297 7.367v155.437c0 2.064.82 4.044 2.28 5.503a7.795 7.795 0 0 0 11.017 0 7.778 7.778 0 0 0 2.282-5.503V122.35a164.073 164.073 0 0 1 40.09-9.027 88.716 88.716 0 0 1 24.926 10.376 94.685 94.685 0 0 0 29.289 11.725h2.389a166.283 166.283 0 0 0 43.725-11.725 7.783 7.783 0 0 0 4.986-7.264V28.133a7.667 7.667 0 0 0-2.805-6.433Zm-12.151 89.547a125.324 125.324 0 0 1-33.755 8.716 87.877 87.877 0 0 1-23.888-10.376 91.866 91.866 0 0 0-31.158-12.036h-2.078a169.5 169.5 0 0 0-39.259 8.301V33.218a164.127 164.127 0 0 1 40.09-9.028 88.74 88.74 0 0 1 24.927 10.377 94.67 94.67 0 0 0 29.289 11.725 106.749 106.749 0 0 0 35.52-7.575l.312 72.53Z" />
</svg>