<svg xmlns="http://www.w3.org/2000/svg" width="200" height="200" fill="none">
    <path fill="currentColor"
        d="M93.563 170.266A6.25 6.25 0 0 1 87.5 175a6.283 6.283 0 0 1-1.562-.188l-25-6.25a6.232 6.232 0 0 1-1.954-.867l-18.75-12.5a6.25 6.25 0 1 1 6.938-10.398l17.844 11.898 23.953 5.993a6.256 6.256 0 0 1 3.872 2.834 6.249 6.249 0 0 1 .722 4.744Zm103.664-75.36a12.43 12.43 0 0 1-6.25 7.227l-18.5 9.25-43.032 43.039a6.24 6.24 0 0 1-5.937 1.64l-50-12.5a6.288 6.288 0 0 1-2.117-.976l-43.375-30.969-18.969-9.484a12.5 12.5 0 0 1-5.594-16.766l19.414-38.82a12.5 12.5 0 0 1 16.766-5.594l17.234 8.594 41.407-11.828a6.25 6.25 0 0 1 3.437 0l41.406 11.828 17.235-8.594a12.5 12.5 0 0 1 16.765 5.594l19.414 38.82a12.407 12.407 0 0 1 .696 9.54Zm-36.078 10.11L139.891 62.5h-24.86l-33.78 32.813c9.89 6.32 25.398 8.062 39.312-5.961a6.248 6.248 0 0 1 8.343-.477l26.883 21.539 5.36-5.398ZM14.633 90.953l13.82 6.914 19.414-38.82-13.82-6.914-19.414 38.82Zm132.242 28.313-21.648-17.336c-15.266 12.5-34.649 14.148-50.711 3.906a12.498 12.498 0 0 1-2.125-19.39.48.48 0 0 1 .062-.063L107.5 52.39 100 50.25 60.61 61.508l-21.383 42.758 38.437 27.461 45.422 11.351 23.789-23.812Zm38.469-28.313-19.391-38.82-13.82 6.914 19.414 38.82 13.797-6.914Z" />
</svg>