<svg xmlns="http://www.w3.org/2000/svg" width="200" height="200" fill="none">
    <path fill="currentColor"
        d="M168.75 75a68.749 68.749 0 0 0-136.965-8.597 68.75 68.75 0 0 0 24.465 61.589V187.5a6.254 6.254 0 0 0 2.963 5.32 6.247 6.247 0 0 0 6.084.274L100 175.781l34.711 17.352c.87.416 1.824.627 2.789.617a6.245 6.245 0 0 0 4.419-1.831 6.245 6.245 0 0 0 1.831-4.419v-59.508a68.621 68.621 0 0 0 25-52.992Zm-125 0A56.25 56.25 0 1 1 100 131.25 56.311 56.311 0 0 1 43.75 75Zm87.5 102.391-28.461-14.227a6.256 6.256 0 0 0-5.594 0L68.75 177.391v-41.164a68.662 68.662 0 0 0 62.5 0v41.164ZM100 118.75A43.75 43.75 0 1 0 56.25 75 43.796 43.796 0 0 0 100 118.75Zm0-75a31.25 31.25 0 1 1 0 62.5 31.25 31.25 0 0 1 0-62.5Z" />
</svg>