<svg xmlns="http://www.w3.org/2000/svg" width="200" height="200" fill="none"><path fill="#000" d="M100 10.417c29.796 0 52.993 8.932 68.24 20.693l.676.518c1.598 1.227 3.317 2.628 4.654 4.86h-.001c1.26 2.097 2.034 4.882 2.079 7.26l.001.052c.032 3-1.036 5.603-1.963 8.05-2.674 7.156-3.671 9.887-4.075 12.508-.327 2.149-.427 3.097-.432 3.943-.006.845.082 1.79.384 3.935h.001c.148 1.05.729 3.194 2.133 7.342 1.354 4 3.305 9.395 5.949 16.716h-.001a59.584 59.584 0 0 1 3.605 20.368v.005c0 28.549-23.506 50.339-46.4 56.063-17.33 4.333-25.784 10.376-30.431 15.023a6.25 6.25 0 0 1-8.838 0c-4.647-4.647-13.1-10.69-30.43-15.023-22.895-5.724-46.401-27.514-46.401-56.063 0-7.648 1.458-14.433 3.605-20.374l.001-.002c2.648-7.319 4.598-12.714 5.95-16.712 1.401-4.145 1.982-6.291 2.13-7.342v-.001c.303-2.145.39-3.09.385-3.935-.005-.846-.106-1.793-.433-3.942v-.001c-.404-2.621-1.398-5.378-4.087-12.523l-.007-.017c-.893-2.393-1.983-5.037-1.935-8.05l.004-.14a15.416 15.416 0 0 1 1.99-7.007l.077-.132c1.525-2.548 3.548-4.012 5.32-5.372 15.245-11.755 38.445-20.7 68.25-20.7Zm-68.75 106.25c0 21.45 18.16 39.243 36.933 43.936 15.356 3.839 25.186 9.112 31.817 14.378 6.631-5.266 16.461-10.539 31.817-14.378 18.771-4.692 36.93-22.483 36.933-43.931l-.012-1.031a47.096 47.096 0 0 0-2.842-15.081l-.007-.02c-2.623-7.263-4.627-12.805-6.032-16.955-1.354-4.002-2.336-7.221-2.671-9.606-.306-2.172-.518-3.913-.506-5.756.011-1.84.244-3.581.575-5.749l.001-.007c.646-4.206 2.248-8.373 4.73-15.02l.011-.03c.556-1.466.849-2.258 1.024-2.862.111-.385.125-.54.126-.596a1.459 1.459 0 0 0-.016-.13 3.739 3.739 0 0 0-.223-.784 1.547 1.547 0 0 0-.053-.118l-.009-.016c-.05-.083-.095-.159-.326-.372-.344-.317-.833-.701-1.893-1.515l-.012-.01C147.762 31.096 127.313 22.917 100 22.917c-27.311 0-47.762 8.187-60.617 18.1l-.01.007c-1.06.814-1.55 1.198-1.892 1.515-.193.177-.254.26-.298.33A2.913 2.913 0 0 0 36.86 44c.002.018.002.041.007.075.012.074.04.222.117.488.177.614.469 1.404 1.022 2.886h-.001c2.348 6.238 3.891 10.283 4.607 14.23l.132.79.001.006c.33 2.168.564 3.908.575 5.75.012 1.842-.2 3.583-.507 5.754l.002.001c-.336 2.383-1.314 5.6-2.668 9.605-1.404 4.151-3.41 9.692-6.037 16.956l.001.001c-1.72 4.758-2.861 10.106-2.861 16.126Z"/><path fill="#000" d="M99.993 52.083c5.594.006 9.341 4.196 11.365 8.291l5.76 11.618a.997.997 0 0 0 .526.395l10.383 1.732c4.502.756 9.401 3.17 11.057 8.366 1.652 5.184-.929 9.985-4.156 13.224l-8.077 8.143a1.074 1.074 0 0 0-.208.738l2.307 10.055.001.004c1.051 4.596 1.151 10.979-3.803 14.621-4.98 3.66-11.043 1.608-15.087-.799l-.006-.004-9.728-5.808a.912.912 0 0 0-.67 0l-9.728 5.808-.001-.001c-4.058 2.426-10.11 4.447-15.082.789-4.943-3.637-4.871-9.999-3.813-14.611l2.308-10.063a1.073 1.073 0 0 0-.21-.73l-8.07-8.143v-.001c-3.21-3.238-5.784-8.034-4.145-13.21 1.648-5.202 6.54-7.62 11.05-8.378h.004l10.346-1.73a1 1 0 0 0 .278-.145.996.996 0 0 0 .23-.248l5.768-11.63.007-.014c2.04-4.091 5.802-8.274 11.394-8.269Zm-.02 13.487c-.059.108-.12.223-.183.347l-5.866 11.834c-.045.09-.092.18-.14.268a13.501 13.501 0 0 1-8.752 6.579 6.374 6.374 0 0 1-.377.075l-10.626 1.775a8.236 8.236 0 0 0-.438.086c.03.035.06.072.094.108l.253.266.002.001 8.258 8.333c.084.085.166.172.245.262a13.586 13.586 0 0 1 3.21 11.268c-.02.118-.043.234-.07.35l-2.366 10.317c-.043.187-.08.364-.111.532.13-.073.269-.15.41-.235l.005-.003 9.966-5.95c.107-.064.216-.124.327-.181a13.405 13.405 0 0 1 12.355 0c.111.057.22.117.326.181l9.96 5.946c.146.087.287.166.421.24a13.643 13.643 0 0 0-.109-.53l-2.367-10.317a5.854 5.854 0 0 1-.07-.35 13.602 13.602 0 0 1 .327-5.998 13.596 13.596 0 0 1 2.883-5.27c.08-.09.162-.178.247-.264l8.268-8.334.014-.013c.125-.126.234-.246.334-.358a8.172 8.172 0 0 0-.447-.088l-10.627-1.774a6.313 6.313 0 0 1-.341-.067 13.494 13.494 0 0 1-8.813-6.563 6.109 6.109 0 0 1-.149-.283l-5.868-11.834-.004-.01a10.113 10.113 0 0 0-.18-.346Z"/></svg>