<svg xmlns="http://www.w3.org/2000/svg" width="634" height="490" fill="none"><mask id="a" width="16" height="16" x="427" y="153" maskUnits="userSpaceOnUse" style="mask-type:alpha"><circle cx="434.775" cy="160.602" r="7.5" fill="#D9D9D9" transform="rotate(99.179 434.775 160.602)"/></mask><g mask="url(#a)"><path fill="#A42099" d="m443.375 154.395-2.393 14.808-12.032-1.944 2.393-14.808z"/></g><mask id="b" width="16" height="16" x="291" y="155" maskUnits="userSpaceOnUse" style="mask-type:alpha"><circle cx="298.729" cy="163.165" r="7.5" fill="#D9D9D9" transform="rotate(-95.821 298.729 163.165)"/></mask><g mask="url(#b)"><path fill="#A42099" d="m292.028 171.387-1.521-14.923 12.125-1.236 1.521 14.923z"/></g><mask id="c" width="16" height="16" x="294" y="401" maskUnits="userSpaceOnUse" style="mask-type:alpha"><circle cx="302.268" cy="409.197" r="7.5" fill="#D9D9D9" transform="rotate(-5.821 302.268 409.197)"/></mask><g mask="url(#c)"><path fill="#A42099" d="m294.046 402.496 14.923-1.521 1.236 12.125-14.923 1.521z"/></g><mask id="d" width="16" height="16" x="563" y="298" maskUnits="userSpaceOnUse" style="mask-type:alpha"><circle cx="571.092" cy="306.208" r="7.5" fill="#D9D9D9" transform="rotate(39.179 571.092 306.208)"/></mask><g mask="url(#d)"><path fill="#A42099" d="m570.017 295.656 11.628 9.476-7.7 9.448-11.628-9.476z"/></g><mask id="e" width="16" height="16" x="517" y="400" maskUnits="userSpaceOnUse" style="mask-type:alpha"><circle cx="525.221" cy="408.385" r="7.5" fill="#D9D9D9" transform="rotate(99.179 525.221 408.385)"/></mask><g mask="url(#e)"><path fill="#F8B725" d="m533.822 402.178-2.393 14.808-12.032-1.944 2.393-14.808z"/></g><mask id="f" width="16" height="16" x="153" y="46" maskUnits="userSpaceOnUse" style="mask-type:alpha"><circle cx="160.616" cy="53.88" r="7.5" fill="#D9D9D9" transform="rotate(-95.821 160.616 53.88)"/></mask><g mask="url(#f)"><path fill="#F8B725" d="m153.916 62.102-1.521-14.923 12.125-1.236 1.522 14.922z"/></g><mask id="g" width="16" height="16" x="113" y="158" maskUnits="userSpaceOnUse" style="mask-type:alpha"><circle cx="121.135" cy="165.642" r="7.5" fill="#D9D9D9" transform="rotate(-5.821 121.135 165.642)"/></mask><g mask="url(#g)"><path fill="#F8B725" d="m112.913 158.941 14.923-1.521 1.236 12.125-14.923 1.521z"/></g><mask id="h" width="16" height="16" x="523" y="111" maskUnits="userSpaceOnUse" style="mask-type:alpha"><circle cx="531.081" cy="119.436" r="7.5" fill="#D9D9D9" transform="rotate(-50.821 531.081 119.436)"/></mask><g mask="url(#h)"><path fill="#F8B725" d="m520.529 120.512 9.476-11.628 9.448 7.7-9.476 11.628z"/></g><mask id="i" width="16" height="16" x="240" y="297" maskUnits="userSpaceOnUse" style="mask-type:alpha"><circle cx="248.237" cy="304.919" r="7.5" fill="#D9D9D9" transform="rotate(144.179 248.237 304.919)"/></mask><g mask="url(#i)"><path fill="#F8B725" d="m258.708 306.611-12.163 8.779-7.133-9.883 12.163-8.779z"/></g><mask id="j" width="16" height="16" x="473" y="258" maskUnits="userSpaceOnUse" style="mask-type:alpha"><circle cx="480.777" cy="265.659" r="7.5" fill="#D9D9D9" transform="rotate(39.179 480.777 265.659)"/></mask><g mask="url(#j)"><path fill="#F8B725" d="m479.702 255.107 11.628 9.476-7.7 9.448-11.628-9.476z"/></g><mask id="k" width="16" height="16" x="261" y="42" maskUnits="userSpaceOnUse" style="mask-type:alpha"><circle cx="269.067" cy="50.375" r="7.5" fill="#D9D9D9" transform="rotate(-155.821 269.067 50.375)"/></mask><g mask="url(#k)"><path fill="#F8B725" d="m272.837 60.29-13.684-6.145 4.992-11.118 13.684 6.143z"/></g><mask id="l" width="16" height="16" x="328" y="261" maskUnits="userSpaceOnUse" style="mask-type:alpha"><circle cx="335.878" cy="268.567" r="7.5" fill="#D9D9D9" transform="rotate(-140.821 335.878 268.567)"/></mask><g mask="url(#l)"><path fill="#00ABA7" d="m336.954 279.119-11.628-9.476 7.7-9.448 11.628 9.476z"/></g><mask id="m" width="16" height="16" x="560" y="-10" maskUnits="userSpaceOnUse" style="mask-type:alpha"><circle cx="567.677" cy="-1.906" r="7.5" fill="#D9D9D9" transform="rotate(24.179 567.677 -1.906)"/></mask><g mask="url(#m)"><path fill="#00ABA7" d="m563.907-11.82 13.684 6.144-4.992 11.119-13.684-6.144z"/></g><mask id="n" width="16" height="16" x="423" y="48" maskUnits="userSpaceOnUse" style="mask-type:alpha"><circle cx="430.893" cy="56.165" r="7.5" fill="#D9D9D9" transform="rotate(114.179 430.893 56.165)"/></mask><g mask="url(#n)"><path fill="#00ABA7" d="m440.807 52.394-6.144 13.684-11.119-4.992 6.144-13.684z"/></g><mask id="o" width="16" height="16" x="418" y="368" maskUnits="userSpaceOnUse" style="mask-type:alpha"><circle cx="425.872" cy="375.601" r="7.5" fill="#D9D9D9" transform="rotate(-80.821 425.872 375.601)"/></mask><g mask="url(#o)"><path fill="#00ABA7" d="m417.271 381.809 2.393-14.808 12.032 1.944-2.393 14.808z"/></g><mask id="p" width="16" height="16" x="215" y="393" maskUnits="userSpaceOnUse" style="mask-type:alpha"><circle cx="223.13" cy="401.467" r="7.5" fill="#D9D9D9" transform="rotate(69.179 223.13 401.467)"/></mask><g mask="url(#p)"><path fill="#00ABA7" d="m227.474 391.791 5.332 14.02-11.392 4.333-5.332-14.02z"/></g><mask id="q" width="16" height="16" x="171" y="236" maskUnits="userSpaceOnUse" style="mask-type:alpha"><circle cx="178.948" cy="243.513" r="7.5" fill="#D9D9D9" transform="rotate(159.179 178.948 243.513)"/></mask><g mask="url(#q)"><path fill="#00ABA7" d="m188.625 247.857-14.02 5.332-4.333-11.392 14.02-5.332z"/></g><mask id="r" width="16" height="16" x="590" y="180" maskUnits="userSpaceOnUse" style="mask-type:alpha"><circle cx="597.86" cy="187.85" r="7.5" fill="#D9D9D9" transform="rotate(-35.821 597.86 187.85)"/></mask><g mask="url(#r)"><path fill="#00ABA7" d="m587.389 186.158 12.163-8.779 7.133 9.883-12.163 8.779z"/></g></svg>