<svg xmlns="http://www.w3.org/2000/svg" width="482" height="336" fill="none"><g clip-path="url(#a)"><path fill="#63194C" d="M464.061 335.311c11.558-28.433 17.953-59.552 17.953-92.193 0-70.494-29.755-133.966-77.264-178.382v244.367h-12.06V54.195C351.261 20.32 298.49 0 241 0 107.895 0 0 108.85 0 243.118c0 32.627 6.396 63.76 17.954 92.193H464.06Z"/><path fill="#00ABA7" d="M464.949 152.836s-9.894-23.695-13.322-27.845l-53.345 105.806 80.233 53.765c6.754-38.141 4.403-86.549-13.566-131.726Z" opacity=".8"/><path fill="#E41D4C" d="M83.1 230.51 29.699 125.077l211.101-.086L83.101 230.51Z" opacity=".5"/><path fill="#FAB729" d="M240.799 124.991 83.101 230.51l51.194 105.016 106.504-210.535Z" opacity=".5"/><path fill="#E41D4C" d="M240.799 124.991 83.101 230.51l51.194 105.016 106.504-210.535Z" opacity=".4"/><path fill="#FAB729" d="m240.713 335.9.086-210.909-106.432 210.593 106.346.316Z" opacity=".8"/><path fill="#00ABA7" d="m240.899 335.9-.272-210.909 105.543 210.42-105.271.489Z" opacity=".8"/><path fill="#FAB729" d="m240.785 336-.373-211.009 105.816 210.88-105.443.129Z" opacity=".4"/><path fill="#00ABA7" d="m240.627 124.991 158.602 106.223-53.059 104.37-105.543-210.593Z" opacity=".7"/><path fill="#FAB729" d="m240.627 124.991 158.602 106.223-53.231 104.37-105.371-210.593Z" opacity=".15"/><path fill="#00ABA7" d="M240.627 124.991h210.986l-53.345 105.806-157.641-105.806Z" opacity=".7"/><path fill="#63194C" d="M240.627 124.991h210.986l-53.345 105.806-157.641-105.806Z" opacity=".2"/><path fill="#00ABA7" d="m240.398 124.991 152.063-70.796S333.738-.43 240.785 0l-.387 124.991Z" opacity=".18"/><path fill="#00ABA7" d="m240.398 124.991 152.063-70.796s36.122 27.471 59.224 70.796H240.398Z" opacity=".35"/><path fill="#63194C" d="M241.158 124.991 89.109 54.195S147.832-.43 240.785 0l.387 124.991h-.014Z" opacity=".18"/><path fill="#E41D4C" d="M240.441 124.991 88.378 54.195s-40.21 33.086-58.752 70.796h210.815Z" opacity=".15"/><path fill="#E41D4C" d="M29.97 125.594C1.808 176.487-4.817 232.951 3.313 283.485l79.789-52.975-53.13-104.916Z" opacity=".7"/><path fill="#FAB729" d="m17.954 335.311 116.341.201-51.18-105.016-79.802 52.989c2.94 18.309 8.36 35.484 14.64 51.826Z" opacity=".1"/><path fill="#E41D4C" d="m17.954 335.311 116.341.201-51.18-105.016-79.802 52.989c2.94 18.309 7.83 35.096 14.64 51.826Z" opacity=".9"/><path fill="#63194C" d="M464.72 152.749s-9.479-23.392-13.107-27.758l-53.345 105.806 80.233 53.765c6.625-37.782 4.56-85.774-13.795-131.813h.014Z" opacity=".2"/><path fill="#00ABA7" d="M464.061 335.311c3.14-8.961 10.697-26.452 14.455-50.749l-79.287-53.348-53.001 104.125h117.833v-.028Z"/><path fill="#fff" d="M419.965 289.459c6.166 7.022 12.691 10.526 19.603 10.526 4.832 0 8.962-1.566 12.347-4.696 3.384-3.131 5.076-6.807 5.076-11.014 0-3.49-1.119-6.592-3.356-9.306-2.237-2.642-7.313-6.002-15.2-10.066-8.446-4.395-14.211-8.746-17.251-13.039-3.04-4.28-4.575-9.177-4.575-14.677 0-7.194 2.438-13.153 7.285-17.907 4.861-4.739 10.985-7.108 18.413-7.108 8.632 0 17.308 4.251 26.056 12.752l-7.744 8.085c-6.453-6.319-12.748-9.478-18.9-9.478-3.915 0-7.285 1.307-10.067 3.92-2.796 2.599-4.187 5.644-4.187 9.119 0 3.073 1.133 6.003 3.441 8.788 2.295 2.829 7.142 6.161 14.484 9.981 8.977 4.696 15.086 9.219 18.312 13.556 3.155 4.394 4.732 9.363 4.732 14.863 0 7.754-2.696 14.331-8.102 19.716-5.406 5.385-12.16 8.071-20.262 8.071-5.407 0-10.569-1.178-15.488-3.562-4.918-2.369-8.977-5.658-12.203-9.808l7.571-8.702.015-.014ZM377.504 100.794h-12.046v208.309h12.046V100.794ZM350.329 214.585h-12.06v94.518h12.06v-94.518ZM336.849 189.081c1.951-1.968 4.245-2.93 6.927-2.93 2.681 0 5.062.977 6.998 2.93 1.936 1.967 2.911 4.337 2.911 7.094 0 2.757-.975 5.04-2.911 7.008-1.936 1.967-4.274 2.929-6.998 2.929-2.725 0-4.976-.976-6.927-2.929-1.921-1.968-2.896-4.294-2.896-7.008 0-2.714.975-5.127 2.896-7.094ZM258.438 164.496h12.074v88.229l43.436-38.14h17.696l-51.496 45.091 54.507 49.427h-16.964l-47.179-42.563v42.563h-12.074V164.496ZM224.107 212.158c8.619 0 17.309 4.25 26.042 12.751l-7.744 8.085c-6.453-6.318-12.748-9.477-18.9-9.477-3.915 0-7.27 1.306-10.052 3.92-2.811 2.599-4.202 5.643-4.202 9.119 0 3.073 1.162 6.002 3.47 8.788 2.295 2.829 7.113 6.161 14.484 9.98 8.962 4.696 15.071 9.22 18.283 13.556 3.155 4.395 4.747 9.363 4.747 14.863 0 7.755-2.696 14.332-8.102 19.717-5.406 5.385-12.161 8.07-20.263 8.07-5.406 0-10.568-1.177-15.487-3.561-4.904-2.37-8.991-5.658-12.189-9.808l7.571-8.702c6.152 7.022 12.691 10.526 19.603 10.526 4.833 0 8.934-1.566 12.347-4.696 3.399-3.131 5.091-6.807 5.091-11.014 0-3.49-1.133-6.592-3.37-9.306-2.237-2.642-7.313-6.002-15.186-10.066-8.461-4.395-14.226-8.746-17.266-13.039-3.054-4.28-4.56-9.177-4.56-14.677 0-7.194 2.424-13.153 7.285-17.907 4.847-4.739 10.984-7.108 18.413-7.108l-.015-.014ZM128.746 165.257h78.096v26.136h-25.153v118.744h-26.644V191.393h-26.299v-26.136ZM15.086 201.129c6.223-10.785 15.129-19.472 26.744-26.035 11.142-6.29 23.117-9.478 35.894-9.736v-.101h45.243v26.136l-45.243-.431c-12.663.273-23.39 4.782-32.151 13.599-9.034 9.09-13.551 20.305-13.551 33.646 0 9.277 1.993 17.534 6.008 24.728 4.001 7.223 9.651 12.867 16.964 16.974 7.314 4.121 15.445 6.161 24.379 6.161 7.629 0 14.598-1.436 20.908-4.308 6.309-2.873 13.25-8.1 20.821-15.682l17.811 18.755c-10.196 10.037-19.833 17.002-28.896 20.879-9.077 3.892-19.43 5.831-31.06 5.831-21.467 0-39.02-6.865-52.7-20.593S5.75 259.632 5.75 238.164c0-13.886 3.112-26.222 9.336-37.021v-.014ZM404.735 309.103h-12.031V54.195l12.031 10.57v244.338Z"/></g><defs><clipPath id="a"><path fill="#fff" d="M0 0h482v336H0z"/></clipPath></defs></svg>