<svg width="137" height="16" fill="none" xmlns="http://www.w3.org/2000/svg"><g clip-path="url(#a)" fill="#fff"><path d="M124.318 14.201h.748v.18h-.257v.649h-.213v-.65h-.256v-.179h-.022Zm1.602.806v-.47l-.235.38h-.086l-.234-.38v.448h-.193v-.806h.171l.32.493.299-.493h.171v.806h-.213v.023ZM4.996 15.3c-.876 0-1.665-.135-2.37-.426a4.599 4.599 0 0 1-1.75-1.231A3.988 3.988 0 0 1 0 11.762l.491-.135c.107.627.363 1.186.769 1.657.405.47.918.828 1.558 1.097.64.268 1.367.38 2.178.38.918 0 1.73-.156 2.434-.492.683-.336 1.238-.784 1.622-1.344.385-.582.577-1.231.577-1.992 0-1.008-.342-1.814-1.004-2.418-.662-.605-1.601-1.097-2.797-1.455l-1.003-.291c-.833-.247-1.452-.515-1.9-.806-.448-.291-.662-.694-.662-1.187 0-.582.256-1.052.769-1.388.512-.358 1.174-.515 1.964-.515.768 0 1.388.157 1.9.493.49.335.768.76.854 1.298l-.491.112c-.022-.403-.235-.761-.64-1.007-.406-.269-.94-.38-1.602-.38-.619 0-1.153.133-1.58.38-.427.246-.64.582-.64.985 0 .358.192.671.598.895.405.224.918.448 1.58.65l.96.29c1.367.426 2.413.986 3.117 1.657.726.672 1.089 1.59 1.089 2.754 0 .828-.213 1.59-.64 2.239-.427.65-1.047 1.164-1.815 1.522-.769.336-1.665.538-2.69.538Zm0-2.351c-.79 0-1.452-.157-1.986-.493-.512-.336-.79-.761-.854-1.298l.491-.135c0 .403.214.74.64 1.008.428.269 1.004.403 1.687.403.705 0 1.281-.134 1.73-.403.448-.269.662-.627.662-1.052 0-.403-.193-.717-.555-.985-.363-.247-.876-.47-1.516-.65L4.27 9.007c-1.388-.425-2.455-.962-3.16-1.611C.406 6.746.043 5.85.043 4.709c0-.806.213-1.545.64-2.172a4.436 4.436 0 0 1 1.772-1.5C3.224.68 4.078.5 5.017.5c.854 0 1.623.134 2.327.425a4.69 4.69 0 0 1 1.73 1.232 3.91 3.91 0 0 1 .875 1.858l-.491.134a3.361 3.361 0 0 0-.769-1.656c-.405-.47-.918-.829-1.558-1.097-.64-.27-1.345-.381-2.114-.381-.854 0-1.622.157-2.284.492a4.225 4.225 0 0 0-1.601 1.344 3.266 3.266 0 0 0-.577 1.903c0 .962.32 1.746.982 2.328.64.582 1.601 1.052 2.882 1.433l1.046.291c.77.224 1.388.493 1.815.806.427.313.64.761.64 1.298 0 .605-.256 1.098-.79 1.456-.533.403-1.238.582-2.134.582Zm0 1.164c-1.068 0-1.943-.246-2.669-.739-.726-.492-1.131-1.142-1.26-1.925l.513-.135c.085.694.448 1.232 1.046 1.657.62.403 1.41.627 2.348.627.705 0 1.303-.112 1.837-.336.533-.224.939-.537 1.238-.94.299-.403.448-.873.448-1.388 0-.717-.256-1.299-.768-1.702-.513-.425-1.239-.76-2.157-1.03L4.57 7.888c-1.089-.313-1.943-.716-2.52-1.209-.576-.492-.875-1.12-.875-1.925 0-.605.171-1.142.491-1.59.342-.47.79-.828 1.388-1.097.576-.268 1.238-.403 1.985-.403.684 0 1.303.112 1.858.336.555.224 1.003.537 1.345.94.342.403.555.873.64 1.41l-.512.135c-.085-.694-.427-1.231-1.046-1.657-.62-.403-1.388-.627-2.285-.627-.64 0-1.216.112-1.729.336-.512.224-.897.515-1.195.896-.278.38-.427.828-.427 1.32 0 .672.256 1.21.768 1.59.513.38 1.26.74 2.242 1.03l1.025.291c1.046.314 1.857.717 2.455 1.21.576.492.875 1.186.875 2.036 0 .627-.17 1.187-.512 1.657-.342.47-.811.85-1.41 1.12-.618.29-1.323.425-2.134.425Zm26.687 1.187c-1.046 0-1.943-.247-2.712-.717-.768-.47-1.345-1.12-1.75-1.948a5.964 5.964 0 0 1-.62-2.686V.768h.513v9.157c0 .896.192 1.702.555 2.418.363.74.897 1.321 1.58 1.747.683.425 1.494.649 2.455.649.96 0 1.772-.224 2.455-.65.683-.425 1.196-1.007 1.58-1.746a5.415 5.415 0 0 0 .555-2.418V.77h.513v9.156c0 .985-.214 1.881-.62 2.687a5.019 5.019 0 0 1-1.75 1.948c-.79.492-1.708.739-2.754.739Zm0-1.187c-.854 0-1.559-.18-2.157-.56a3.498 3.498 0 0 1-1.345-1.522c-.32-.627-.47-1.343-.47-2.105V.77h.513v9.156c0 .672.128 1.276.406 1.836.256.56.662.985 1.174 1.321.512.336 1.153.493 1.9.493.747 0 1.388-.157 1.9-.493a3.271 3.271 0 0 0 1.174-1.32c.257-.56.406-1.165.406-1.837V.77h.512v9.156c0 .762-.149 1.478-.47 2.105a3.94 3.94 0 0 1-1.344 1.522c-.64.38-1.367.56-2.2.56Zm0-1.164c-.64 0-1.174-.135-1.602-.403a2.306 2.306 0 0 1-.939-1.097 3.518 3.518 0 0 1-.32-1.523V.77h.512v9.156c0 .694.192 1.276.555 1.747.363.492.961.716 1.794.716.832 0 1.43-.246 1.793-.716a2.87 2.87 0 0 0 .555-1.747V.77h.513v9.156a3.59 3.59 0 0 1-.32 1.523 2.699 2.699 0 0 1-.94 1.097c-.427.268-.96.403-1.601.403Zm14.902 2.082-2.327-5.35h.555l2.327 5.35h-.555Zm1.238 0-2.349-5.35h.278c.085 0 .192-.023.278-.023l2.348 5.395h-.555v-.022Zm1.238 0-2.39-5.485c.084-.023.17-.023.234-.045.085-.022.17-.045.235-.09l2.455 5.598h-.534v.022Zm18.446-8.575h5.786v.538h-5.786v-.538Zm0 1.164h5.786v.538h-5.786v-.538Zm0 1.187h5.786v.537h-5.786v-.537ZM18.19 15.299c-3.886 0-7.046-3.314-7.046-7.389 0-4.074 3.16-7.388 7.046-7.388 3.885 0 7.045 3.314 7.045 7.388 0 4.053-3.16 7.389-7.045 7.389Zm0-14.262c-3.608 0-6.555 3.067-6.555 6.851s2.925 6.85 6.534 6.85c3.607 0 6.532-3.066 6.532-6.85.022-3.784-2.903-6.85-6.511-6.85Z"/><path d="M18.19 14.112c-3.267 0-5.935-2.799-5.935-6.224 0-3.425 2.668-6.201 5.935-6.201 3.266 0 5.935 2.798 5.935 6.223 0 3.426-2.669 6.202-5.935 6.202Zm0-11.91c-2.99 0-5.423 2.552-5.423 5.686s2.434 5.687 5.423 5.687 5.423-2.553 5.423-5.687c0-3.134-2.434-5.687-5.423-5.687Z"/><path d="M18.19 12.948c-2.648 0-4.804-2.261-4.804-5.037 0-2.777 2.157-5.038 4.804-5.038 2.647 0 4.803 2.261 4.803 5.038 0 2.776-2.156 5.037-4.803 5.037Zm0-9.56c-2.37 0-4.313 2.015-4.313 4.5s1.922 4.5 4.292 4.5 4.29-2.015 4.29-4.5-1.9-4.5-4.27-4.5Zm42.614 7.702a4.14 4.14 0 0 1-3.053 1.32c-2.37 0-4.292-2.014-4.292-4.5 0-2.485 1.922-4.5 4.292-4.5 1.195 0 2.263.515 3.053 1.321l.362-.38c-.875-.918-2.07-1.478-3.394-1.478-2.669-.022-4.825 2.239-4.825 5.015s2.156 5.037 4.804 5.037c1.323 0 2.54-.56 3.394-1.477l-.341-.358Z"/><path d="M61.593 11.918c-.982 1.03-2.348 1.679-3.843 1.679-2.988 0-5.422-2.552-5.422-5.687 0-3.134 2.434-5.686 5.422-5.686 1.495 0 2.861.65 3.843 1.679l.363-.38c-1.067-1.12-2.562-1.836-4.184-1.836-3.267 0-5.935 2.798-5.935 6.223 0 3.426 2.668 6.224 5.935 6.224 1.644 0 3.117-.694 4.184-1.835l-.363-.381Z"/><path d="M62.383 12.746c-1.195 1.254-2.818 2.015-4.632 2.015-3.608 0-6.533-3.067-6.533-6.85 0-3.784 2.924-6.851 6.533-6.851 1.814 0 3.437.761 4.632 2.015l.363-.38C61.466 1.35 59.715.521 57.772.521c-3.886 0-7.045 3.314-7.045 7.389 0 4.074 3.16 7.388 7.045 7.388 1.943 0 3.715-.829 4.996-2.172l-.385-.38Zm11.87 2.284h-7.386c-1.495 0-2.69-1.276-2.69-2.821v-8.62c0-1.567 1.217-2.82 2.69-2.82h7.387v.537h-7.387c-1.217 0-2.2 1.03-2.2 2.306v8.597c0 1.276.983 2.306 2.2 2.306h7.387v.515Z"/><path d="M74.254 13.843h-7.387c-.876 0-1.58-.739-1.58-1.657V3.59c0-.918.704-1.656 1.58-1.656h7.387v.537h-7.387c-.598 0-1.068.515-1.068 1.12v8.596c0 .627.491 1.12 1.068 1.12h7.387v.537Z"/><path d="M74.254 12.68h-7.387a.486.486 0 0 1-.47-.493V3.59c0-.27.213-.493.47-.493h7.387v.537h-7.345v8.508h7.345v.537Zm-35.291 2.35h-.513V3.612c0-1.567 1.217-2.821 2.69-2.821h4.655c2.177 0 3.95 1.858 3.95 4.142 0 2.283-1.773 4.142-3.95 4.142H41.78v-.538h3.992c1.9 0 3.438-1.612 3.438-3.604 0-1.993-1.538-3.605-3.438-3.605H41.14c-1.216 0-2.199 1.03-2.199 2.306V15.03h.022Z"/><path d="M40.073 15.03h-.512V3.612c0-.918.704-1.657 1.58-1.657h4.633c1.58 0 2.839 1.343 2.839 2.978 0 1.634-1.281 2.977-2.84 2.977h-3.992v-.537h3.971c1.302 0 2.349-1.097 2.349-2.44 0-1.344-1.047-2.44-2.328-2.44h-4.632c-.598 0-1.068.514-1.068 1.119V15.03Z"/><path d="M41.183 15.03h-.512V3.612c0-.269.213-.493.47-.493h4.632c.961 0 1.73.806 1.73 1.814 0 1.007-.769 1.813-1.73 1.813h-3.992V6.21h3.992c.684 0 1.217-.582 1.217-1.276 0-.694-.555-1.276-1.217-1.276h-4.59V15.03Zm72.717 0L110.484.769h.512l3.416 14.26h-.512Zm1.153 0L111.637.769h.512l3.416 14.26h-.512Zm1.131 0L112.79.769h.512l3.416 14.26h-.534Zm-.32-6.112-.235-1.12 1.687-7.03h.512l-1.964 8.15Zm.576 2.418-.256-1.075L118.469.77h.512l-2.541 10.567Zm.598 2.373-.277-1.12L119.6.77h.534l-3.096 12.94Zm2.989 1.32-1.345-5.619.278-1.097 1.601 6.717h-.534Zm1.153 0-1.9-7.992.235-1.097 2.199 9.09h-.534Zm1.132 0-2.477-10.343.256-1.119 2.754 11.463h-.533ZM126.347 3.12c-.705 0-1.303.492-1.474 1.209l-1.985 8.238.256 1.097 2.22-9.201c.107-.47.513-.806.983-.806h6.533V3.12h-6.533Z"/><path d="M126.112 1.933c-1.068 0-2.007.76-2.263 1.858l-1.537 6.403.256 1.097 1.75-7.366c.214-.85.94-1.455 1.772-1.455h10.44v-.537h-10.418Z"/><path d="M125.962.769c-1.494 0-2.797 1.052-3.16 2.574l-1.046 4.388.257 1.097 1.281-5.328c.32-1.276 1.409-2.172 2.668-2.172h3.245v-.56h-3.245Zm-22.481 14.507c-3.885 0-7.045-3.313-7.045-7.388 0-4.075 3.16-7.388 7.045-7.388 3.886 0 7.045 3.313 7.045 7.388 0 4.075-3.159 7.388-7.045 7.388Zm0-14.239c-3.608 0-6.533 3.067-6.533 6.851s2.925 6.85 6.533 6.85c3.608 0 6.533-3.066 6.533-6.85s-2.925-6.85-6.533-6.85Z"/><path d="M103.481 14.112c-3.266 0-5.914-2.799-5.914-6.224 0-3.425 2.669-6.224 5.936-6.224 3.266 0 5.935 2.799 5.935 6.224 0 3.425-2.669 6.224-5.957 6.224Zm0-11.91c-2.989 0-5.423 2.552-5.423 5.686s2.434 5.687 5.423 5.687 5.423-2.553 5.423-5.687c0-3.134-2.434-5.687-5.423-5.687Z"/><path d="M103.481 12.925c-2.647 0-4.803-2.26-4.803-5.037 0-2.776 2.156-5.037 4.803-5.037 2.648 0 4.804 2.26 4.804 5.037 0 2.776-2.135 5.037-4.804 5.037Zm0-9.537c-2.369 0-4.29 2.015-4.29 4.5s1.921 4.5 4.29 4.5c2.37 0 4.292-2.015 4.292-4.5s-1.901-4.5-4.292-4.5ZM76.453 15.03h-.513V3.612c0-1.567 1.217-2.821 2.69-2.821h7.409v.537h-7.387c-1.217 0-2.2 1.03-2.2 2.306V15.03Z"/><path d="M77.563 15.03h-.491V3.612c0-.918.704-1.657 1.58-1.657h7.387v.537h-7.387c-.598 0-1.068.515-1.068 1.12V15.03h-.021Z"/><path d="M78.695 15.03h-.513V3.612c0-.269.214-.493.47-.493h7.387v.515h-7.344V15.03Zm17.826 0h-6.426c-1.494 0-2.69-1.276-2.69-2.821V.79h.513v11.418c0 1.276.982 2.306 2.198 2.306h6.427v.515h-.022Z"/><path d="M96.521 13.843h-6.426c-.875 0-1.58-.739-1.58-1.656V.769h.513v11.418c0 .626.49 1.119 1.067 1.119h6.426v.537Z"/><path d="M96.521 12.679h-6.426a.486.486 0 0 1-.47-.492V.769h.513v11.373h6.383v.537ZM79.292 6.455h5.786v.537h-5.786v-.537Zm0 1.164h5.786v.538h-5.786v-.538Zm0 1.187h5.786v.537h-5.786v-.537Z"/></g><defs><clipPath id="a"><path fill="#fff" transform="translate(0 .5)" d="M0 0h137v15H0z"/></clipPath></defs></svg>