<svg width="497" height="315" viewBox="0 0 497 315" fill="none" xmlns="http://www.w3.org/2000/svg">
<g opacity="0.3">
<mask id="mask0_0_1096" style="mask-type:alpha" maskUnits="userSpaceOnUse" x="1" y="1" width="16" height="16">
<circle cx="9.18616" cy="9.18669" r="7.50047" transform="rotate(-15 9.18616 9.18669)" fill="#D9D9D9"/>
</mask>
<g mask="url(#mask0_0_1096)">
<rect y="3.88306" width="15.0009" height="12.1883" transform="rotate(-15 0 3.88306)" fill="#E0D1DB"/>
</g>
<mask id="mask1_0_1096" style="mask-type:alpha" maskUnits="userSpaceOnUse" x="1" y="44" width="16" height="16">
<circle cx="9.18616" cy="51.5604" r="7.50047" transform="rotate(-15 9.18616 51.5604)" fill="#D9D9D9"/>
</mask>
<g mask="url(#mask1_0_1096)">
<rect y="46.2568" width="15.0009" height="12.1883" transform="rotate(-15 0 46.2568)" fill="#E0D1DB"/>
</g>
<mask id="mask2_0_1096" style="mask-type:alpha" maskUnits="userSpaceOnUse" x="1" y="86" width="16" height="16">
<circle cx="9.18616" cy="93.9342" r="7.50047" transform="rotate(-15 9.18616 93.9342)" fill="#D9D9D9"/>
</mask>
<g mask="url(#mask2_0_1096)">
<rect y="88.6306" width="15.0009" height="12.1883" transform="rotate(-15 0 88.6306)" fill="#E0D1DB"/>
</g>
<mask id="mask3_0_1096" style="mask-type:alpha" maskUnits="userSpaceOnUse" x="1" y="128" width="16" height="16">
<circle cx="9.18616" cy="136.308" r="7.50047" transform="rotate(-15 9.18616 136.308)" fill="#D9D9D9"/>
</mask>
<g mask="url(#mask3_0_1096)">
<rect y="131.004" width="15.0009" height="12.1883" transform="rotate(-15 0 131.004)" fill="#E0D1DB"/>
</g>
<mask id="mask4_0_1096" style="mask-type:alpha" maskUnits="userSpaceOnUse" x="1" y="171" width="16" height="16">
<circle cx="9.18616" cy="178.682" r="7.50047" transform="rotate(-15 9.18616 178.682)" fill="#D9D9D9"/>
</mask>
<g mask="url(#mask4_0_1096)">
<rect y="173.378" width="15.0009" height="12.1883" transform="rotate(-15 0 173.378)" fill="#E0D1DB"/>
</g>
<mask id="mask5_0_1096" style="mask-type:alpha" maskUnits="userSpaceOnUse" x="1" y="213" width="16" height="16">
<circle cx="9.18616" cy="221.055" r="7.50047" transform="rotate(-15 9.18616 221.055)" fill="#D9D9D9"/>
</mask>
<g mask="url(#mask5_0_1096)">
<rect y="215.752" width="15.0009" height="12.1883" transform="rotate(-15 0 215.752)" fill="#E0D1DB"/>
</g>
<mask id="mask6_0_1096" style="mask-type:alpha" maskUnits="userSpaceOnUse" x="70" y="22" width="16" height="16">
<circle cx="77.5616" cy="30.3716" r="7.50047" transform="rotate(-15 77.5616 30.3716)" fill="#D9D9D9"/>
</mask>
<g mask="url(#mask6_0_1096)">
<rect x="68.3754" y="25.068" width="15.0009" height="12.1883" transform="rotate(-15 68.3754 25.068)" fill="#E0D1DB"/>
</g>
<mask id="mask7_0_1096" style="mask-type:alpha" maskUnits="userSpaceOnUse" x="70" y="65" width="16" height="16">
<circle cx="77.5616" cy="72.7473" r="7.50047" transform="rotate(-15 77.5616 72.7473)" fill="#D9D9D9"/>
</mask>
<g mask="url(#mask7_0_1096)">
<rect x="68.3754" y="67.4437" width="15.0009" height="12.1883" transform="rotate(-15 68.3754 67.4437)" fill="#E0D1DB"/>
</g>
<mask id="mask8_0_1096" style="mask-type:alpha" maskUnits="userSpaceOnUse" x="70" y="107" width="16" height="16">
<circle cx="77.5616" cy="115.121" r="7.50047" transform="rotate(-15 77.5616 115.121)" fill="#D9D9D9"/>
</mask>
<g mask="url(#mask8_0_1096)">
<rect x="68.3754" y="109.817" width="15.0009" height="12.1883" transform="rotate(-15 68.3754 109.817)" fill="#E0D1DB"/>
</g>
<mask id="mask9_0_1096" style="mask-type:alpha" maskUnits="userSpaceOnUse" x="70" y="149" width="16" height="16">
<circle cx="77.5616" cy="157.495" r="7.50047" transform="rotate(-15 77.5616 157.495)" fill="#D9D9D9"/>
</mask>
<g mask="url(#mask9_0_1096)">
<rect x="68.3754" y="152.191" width="15.0009" height="12.1883" transform="rotate(-15 68.3754 152.191)" fill="#E0D1DB"/>
</g>
<mask id="mask10_0_1096" style="mask-type:alpha" maskUnits="userSpaceOnUse" x="70" y="192" width="16" height="16">
<circle cx="77.5616" cy="199.869" r="7.50047" transform="rotate(-15 77.5616 199.869)" fill="#D9D9D9"/>
</mask>
<g mask="url(#mask10_0_1096)">
<rect x="68.3754" y="194.565" width="15.0009" height="12.1883" transform="rotate(-15 68.3754 194.565)" fill="#E0D1DB"/>
</g>
<mask id="mask11_0_1096" style="mask-type:alpha" maskUnits="userSpaceOnUse" x="70" y="234" width="16" height="16">
<circle cx="77.5616" cy="242.242" r="7.50047" transform="rotate(-15 77.5616 242.242)" fill="#D9D9D9"/>
</mask>
<g mask="url(#mask11_0_1096)">
<rect x="68.3754" y="236.939" width="15.0009" height="12.1883" transform="rotate(-15 68.3754 236.939)" fill="#E0D1DB"/>
</g>
<mask id="mask12_0_1096" style="mask-type:alpha" maskUnits="userSpaceOnUse" x="138" y="44" width="16" height="16">
<circle cx="145.937" cy="51.5604" r="7.50047" transform="rotate(-15 145.937 51.5604)" fill="#D9D9D9"/>
</mask>
<g mask="url(#mask12_0_1096)">
<rect x="136.751" y="46.2568" width="15.0009" height="12.1883" transform="rotate(-15 136.751 46.2568)" fill="#E0D1DB"/>
</g>
<mask id="mask13_0_1096" style="mask-type:alpha" maskUnits="userSpaceOnUse" x="138" y="86" width="16" height="16">
<circle cx="145.937" cy="93.9342" r="7.50047" transform="rotate(-15 145.937 93.9342)" fill="#D9D9D9"/>
</mask>
<g mask="url(#mask13_0_1096)">
<rect x="136.751" y="88.6306" width="15.0009" height="12.1883" transform="rotate(-15 136.751 88.6306)" fill="#E0D1DB"/>
</g>
<mask id="mask14_0_1096" style="mask-type:alpha" maskUnits="userSpaceOnUse" x="138" y="128" width="16" height="16">
<circle cx="145.937" cy="136.308" r="7.50047" transform="rotate(-15 145.937 136.308)" fill="#D9D9D9"/>
</mask>
<g mask="url(#mask14_0_1096)">
<rect x="136.751" y="131.004" width="15.0009" height="12.1883" transform="rotate(-15 136.751 131.004)" fill="#E0D1DB"/>
</g>
<mask id="mask15_0_1096" style="mask-type:alpha" maskUnits="userSpaceOnUse" x="138" y="171" width="16" height="16">
<circle cx="145.937" cy="178.682" r="7.50047" transform="rotate(-15 145.937 178.682)" fill="#D9D9D9"/>
</mask>
<g mask="url(#mask15_0_1096)">
<rect x="136.751" y="173.378" width="15.0009" height="12.1883" transform="rotate(-15 136.751 173.378)" fill="#E0D1DB"/>
</g>
<mask id="mask16_0_1096" style="mask-type:alpha" maskUnits="userSpaceOnUse" x="138" y="213" width="16" height="16">
<circle cx="145.937" cy="221.055" r="7.50047" transform="rotate(-15 145.937 221.055)" fill="#D9D9D9"/>
</mask>
<g mask="url(#mask16_0_1096)">
<rect x="136.751" y="215.752" width="15.0009" height="12.1883" transform="rotate(-15 136.751 215.752)" fill="#E0D1DB"/>
</g>
<mask id="mask17_0_1096" style="mask-type:alpha" maskUnits="userSpaceOnUse" x="138" y="255" width="16" height="16">
<circle cx="145.937" cy="263.429" r="7.50047" transform="rotate(-15 145.937 263.429)" fill="#D9D9D9"/>
</mask>
<g mask="url(#mask17_0_1096)">
<rect x="136.751" y="258.126" width="15.0009" height="12.1883" transform="rotate(-15 136.751 258.126)" fill="#E0D1DB"/>
</g>
<mask id="mask18_0_1096" style="mask-type:alpha" maskUnits="userSpaceOnUse" x="138" y="298" width="16" height="16">
<circle cx="145.937" cy="305.803" r="7.50047" transform="rotate(-15 145.937 305.803)" fill="#D9D9D9"/>
</mask>
<g mask="url(#mask18_0_1096)">
<rect x="136.751" y="300.499" width="15.0009" height="12.1883" transform="rotate(-15 136.751 300.499)" fill="#E0D1DB"/>
</g>
<mask id="mask19_0_1096" style="mask-type:alpha" maskUnits="userSpaceOnUse" x="206" y="65" width="16" height="16">
<circle cx="214.312" cy="72.7473" r="7.50047" transform="rotate(-15 214.312 72.7473)" fill="#D9D9D9"/>
</mask>
<g mask="url(#mask19_0_1096)">
<rect x="205.126" y="67.4437" width="15.0009" height="12.1883" transform="rotate(-15 205.126 67.4437)" fill="#E0D1DB"/>
</g>
<mask id="mask20_0_1096" style="mask-type:alpha" maskUnits="userSpaceOnUse" x="206" y="107" width="16" height="16">
<circle cx="214.312" cy="115.121" r="7.50047" transform="rotate(-15 214.312 115.121)" fill="#D9D9D9"/>
</mask>
<g mask="url(#mask20_0_1096)">
<rect x="205.126" y="109.817" width="15.0009" height="12.1883" transform="rotate(-15 205.126 109.817)" fill="#E0D1DB"/>
</g>
<mask id="mask21_0_1096" style="mask-type:alpha" maskUnits="userSpaceOnUse" x="206" y="149" width="16" height="16">
<circle cx="214.312" cy="157.495" r="7.50047" transform="rotate(-15 214.312 157.495)" fill="#D9D9D9"/>
</mask>
<g mask="url(#mask21_0_1096)">
<rect x="205.126" y="152.191" width="15.0009" height="12.1883" transform="rotate(-15 205.126 152.191)" fill="#E0D1DB"/>
</g>
<mask id="mask22_0_1096" style="mask-type:alpha" maskUnits="userSpaceOnUse" x="206" y="192" width="16" height="16">
<circle cx="214.312" cy="199.869" r="7.50047" transform="rotate(-15 214.312 199.869)" fill="#D9D9D9"/>
</mask>
<g mask="url(#mask22_0_1096)">
<rect x="205.126" y="194.565" width="15.0009" height="12.1883" transform="rotate(-15 205.126 194.565)" fill="#E0D1DB"/>
</g>
<mask id="mask23_0_1096" style="mask-type:alpha" maskUnits="userSpaceOnUse" x="206" y="234" width="16" height="16">
<circle cx="214.312" cy="242.242" r="7.50047" transform="rotate(-15 214.312 242.242)" fill="#D9D9D9"/>
</mask>
<g mask="url(#mask23_0_1096)">
<rect x="205.126" y="236.939" width="15.0009" height="12.1883" transform="rotate(-15 205.126 236.939)" fill="#E0D1DB"/>
</g>
<mask id="mask24_0_1096" style="mask-type:alpha" maskUnits="userSpaceOnUse" x="206" y="277" width="16" height="16">
<circle cx="214.312" cy="284.616" r="7.50047" transform="rotate(-15 214.312 284.616)" fill="#D9D9D9"/>
</mask>
<g mask="url(#mask24_0_1096)">
<rect x="205.126" y="279.312" width="15.0009" height="12.1883" transform="rotate(-15 205.126 279.312)" fill="#E0D1DB"/>
</g>
<mask id="mask25_0_1096" style="mask-type:alpha" maskUnits="userSpaceOnUse" x="275" y="44" width="16" height="16">
<circle cx="282.688" cy="51.5604" r="7.50047" transform="rotate(-15 282.688 51.5604)" fill="#D9D9D9"/>
</mask>
<g mask="url(#mask25_0_1096)">
<rect x="273.502" y="46.2568" width="15.0009" height="12.1883" transform="rotate(-15 273.502 46.2568)" fill="#E0D1DB"/>
</g>
<mask id="mask26_0_1096" style="mask-type:alpha" maskUnits="userSpaceOnUse" x="275" y="86" width="16" height="16">
<circle cx="282.688" cy="93.9342" r="7.50047" transform="rotate(-15 282.688 93.9342)" fill="#D9D9D9"/>
</mask>
<g mask="url(#mask26_0_1096)">
<rect x="273.502" y="88.6306" width="15.0009" height="12.1883" transform="rotate(-15 273.502 88.6306)" fill="#E0D1DB"/>
</g>
<mask id="mask27_0_1096" style="mask-type:alpha" maskUnits="userSpaceOnUse" x="275" y="128" width="16" height="16">
<circle cx="282.688" cy="136.308" r="7.50047" transform="rotate(-15 282.688 136.308)" fill="#D9D9D9"/>
</mask>
<g mask="url(#mask27_0_1096)">
<rect x="273.502" y="131.004" width="15.0009" height="12.1883" transform="rotate(-15 273.502 131.004)" fill="#E0D1DB"/>
</g>
<mask id="mask28_0_1096" style="mask-type:alpha" maskUnits="userSpaceOnUse" x="275" y="171" width="16" height="16">
<circle cx="282.688" cy="178.682" r="7.50047" transform="rotate(-15 282.688 178.682)" fill="#D9D9D9"/>
</mask>
<g mask="url(#mask28_0_1096)">
<rect x="273.502" y="173.378" width="15.0009" height="12.1883" transform="rotate(-15 273.502 173.378)" fill="#E0D1DB"/>
</g>
<mask id="mask29_0_1096" style="mask-type:alpha" maskUnits="userSpaceOnUse" x="275" y="213" width="16" height="16">
<circle cx="282.688" cy="221.055" r="7.50047" transform="rotate(-15 282.688 221.055)" fill="#D9D9D9"/>
</mask>
<g mask="url(#mask29_0_1096)">
<rect x="273.502" y="215.752" width="15.0009" height="12.1883" transform="rotate(-15 273.502 215.752)" fill="#E0D1DB"/>
</g>
<mask id="mask30_0_1096" style="mask-type:alpha" maskUnits="userSpaceOnUse" x="275" y="255" width="16" height="16">
<circle cx="282.688" cy="263.429" r="7.50047" transform="rotate(-15 282.688 263.429)" fill="#D9D9D9"/>
</mask>
<g mask="url(#mask30_0_1096)">
<rect x="273.502" y="258.126" width="15.0009" height="12.1883" transform="rotate(-15 273.502 258.126)" fill="#E0D1DB"/>
</g>
<mask id="mask31_0_1096" style="mask-type:alpha" maskUnits="userSpaceOnUse" x="343" y="22" width="16" height="16">
<circle cx="351.063" cy="30.3716" r="7.50047" transform="rotate(-15 351.063 30.3716)" fill="#D9D9D9"/>
</mask>
<g mask="url(#mask31_0_1096)">
<rect x="341.877" y="25.068" width="15.0009" height="12.1883" transform="rotate(-15 341.877 25.068)" fill="#E0D1DB"/>
</g>
<mask id="mask32_0_1096" style="mask-type:alpha" maskUnits="userSpaceOnUse" x="343" y="65" width="16" height="16">
<circle cx="351.063" cy="72.7473" r="7.50047" transform="rotate(-15 351.063 72.7473)" fill="#D9D9D9"/>
</mask>
<g mask="url(#mask32_0_1096)">
<rect x="341.877" y="67.4437" width="15.0009" height="12.1883" transform="rotate(-15 341.877 67.4437)" fill="#E0D1DB"/>
</g>
<mask id="mask33_0_1096" style="mask-type:alpha" maskUnits="userSpaceOnUse" x="343" y="107" width="16" height="16">
<circle cx="351.063" cy="115.121" r="7.50047" transform="rotate(-15 351.063 115.121)" fill="#D9D9D9"/>
</mask>
<g mask="url(#mask33_0_1096)">
<rect x="341.877" y="109.817" width="15.0009" height="12.1883" transform="rotate(-15 341.877 109.817)" fill="#E0D1DB"/>
</g>
<mask id="mask34_0_1096" style="mask-type:alpha" maskUnits="userSpaceOnUse" x="343" y="149" width="16" height="16">
<circle cx="351.063" cy="157.495" r="7.50047" transform="rotate(-15 351.063 157.495)" fill="#D9D9D9"/>
</mask>
<g mask="url(#mask34_0_1096)">
<rect x="341.877" y="152.191" width="15.0009" height="12.1883" transform="rotate(-15 341.877 152.191)" fill="#E0D1DB"/>
</g>
<mask id="mask35_0_1096" style="mask-type:alpha" maskUnits="userSpaceOnUse" x="343" y="192" width="16" height="16">
<circle cx="351.063" cy="199.869" r="7.50047" transform="rotate(-15 351.063 199.869)" fill="#D9D9D9"/>
</mask>
<g mask="url(#mask35_0_1096)">
<rect x="341.877" y="194.565" width="15.0009" height="12.1883" transform="rotate(-15 341.877 194.565)" fill="#E0D1DB"/>
</g>
<mask id="mask36_0_1096" style="mask-type:alpha" maskUnits="userSpaceOnUse" x="343" y="234" width="16" height="16">
<circle cx="351.063" cy="242.242" r="7.50047" transform="rotate(-15 351.063 242.242)" fill="#D9D9D9"/>
</mask>
<g mask="url(#mask36_0_1096)">
<rect x="341.877" y="236.939" width="15.0009" height="12.1883" transform="rotate(-15 341.877 236.939)" fill="#E0D1DB"/>
</g>
<mask id="mask37_0_1096" style="mask-type:alpha" maskUnits="userSpaceOnUse" x="343" y="277" width="16" height="16">
<circle cx="351.063" cy="284.616" r="7.50047" transform="rotate(-15 351.063 284.616)" fill="#D9D9D9"/>
</mask>
<g mask="url(#mask37_0_1096)">
<rect x="341.877" y="279.312" width="15.0009" height="12.1883" transform="rotate(-15 341.877 279.312)" fill="#E0D1DB"/>
</g>
<mask id="mask38_0_1096" style="mask-type:alpha" maskUnits="userSpaceOnUse" x="411" y="1" width="16" height="16">
<circle cx="419.439" cy="9.18669" r="7.50047" transform="rotate(-15 419.439 9.18669)" fill="#D9D9D9"/>
</mask>
<g mask="url(#mask38_0_1096)">
<rect x="410.252" y="3.88306" width="15.0009" height="12.1883" transform="rotate(-15 410.252 3.88306)" fill="#E0D1DB"/>
</g>
<mask id="mask39_0_1096" style="mask-type:alpha" maskUnits="userSpaceOnUse" x="411" y="44" width="16" height="16">
<circle cx="419.439" cy="51.5604" r="7.50047" transform="rotate(-15 419.439 51.5604)" fill="#D9D9D9"/>
</mask>
<g mask="url(#mask39_0_1096)">
<rect x="410.252" y="46.2568" width="15.0009" height="12.1883" transform="rotate(-15 410.252 46.2568)" fill="#E0D1DB"/>
</g>
<mask id="mask40_0_1096" style="mask-type:alpha" maskUnits="userSpaceOnUse" x="411" y="86" width="16" height="16">
<circle cx="419.439" cy="93.9342" r="7.50047" transform="rotate(-15 419.439 93.9342)" fill="#D9D9D9"/>
</mask>
<g mask="url(#mask40_0_1096)">
<rect x="410.252" y="88.6306" width="15.0009" height="12.1883" transform="rotate(-15 410.252 88.6306)" fill="#E0D1DB"/>
</g>
<mask id="mask41_0_1096" style="mask-type:alpha" maskUnits="userSpaceOnUse" x="411" y="128" width="16" height="16">
<circle cx="419.439" cy="136.308" r="7.50047" transform="rotate(-15 419.439 136.308)" fill="#D9D9D9"/>
</mask>
<g mask="url(#mask41_0_1096)">
<rect x="410.252" y="131.004" width="15.0009" height="12.1883" transform="rotate(-15 410.252 131.004)" fill="#E0D1DB"/>
</g>
<mask id="mask42_0_1096" style="mask-type:alpha" maskUnits="userSpaceOnUse" x="411" y="171" width="16" height="16">
<circle cx="419.439" cy="178.682" r="7.50047" transform="rotate(-15 419.439 178.682)" fill="#D9D9D9"/>
</mask>
<g mask="url(#mask42_0_1096)">
<rect x="410.252" y="173.378" width="15.0009" height="12.1883" transform="rotate(-15 410.252 173.378)" fill="#E0D1DB"/>
</g>
<mask id="mask43_0_1096" style="mask-type:alpha" maskUnits="userSpaceOnUse" x="411" y="213" width="16" height="16">
<circle cx="419.439" cy="221.055" r="7.50047" transform="rotate(-15 419.439 221.055)" fill="#D9D9D9"/>
</mask>
<g mask="url(#mask43_0_1096)">
<rect x="410.252" y="215.752" width="15.0009" height="12.1883" transform="rotate(-15 410.252 215.752)" fill="#E0D1DB"/>
</g>
<mask id="mask44_0_1096" style="mask-type:alpha" maskUnits="userSpaceOnUse" x="411" y="255" width="16" height="16">
<circle cx="419.439" cy="263.429" r="7.50047" transform="rotate(-15 419.439 263.429)" fill="#D9D9D9"/>
</mask>
<g mask="url(#mask44_0_1096)">
<rect x="410.252" y="258.126" width="15.0009" height="12.1883" transform="rotate(-15 410.252 258.126)" fill="#E0D1DB"/>
</g>
<mask id="mask45_0_1096" style="mask-type:alpha" maskUnits="userSpaceOnUse" x="411" y="298" width="16" height="16">
<circle cx="419.439" cy="305.803" r="7.50047" transform="rotate(-15 419.439 305.803)" fill="#D9D9D9"/>
</mask>
<g mask="url(#mask45_0_1096)">
<rect x="410.252" y="300.499" width="15.0009" height="12.1883" transform="rotate(-15 410.252 300.499)" fill="#E0D1DB"/>
</g>
<mask id="mask46_0_1096" style="mask-type:alpha" maskUnits="userSpaceOnUse" x="480" y="22" width="16" height="16">
<circle cx="487.814" cy="30.3736" r="7.50047" transform="rotate(-15 487.814 30.3736)" fill="#D9D9D9"/>
</mask>
<g mask="url(#mask46_0_1096)">
<rect x="478.628" y="25.0699" width="15.0009" height="12.1883" transform="rotate(-15 478.628 25.0699)" fill="#E0D1DB"/>
</g>
<mask id="mask47_0_1096" style="mask-type:alpha" maskUnits="userSpaceOnUse" x="480" y="65" width="16" height="16">
<circle cx="487.814" cy="72.7473" r="7.50047" transform="rotate(-15 487.814 72.7473)" fill="#D9D9D9"/>
</mask>
<g mask="url(#mask47_0_1096)">
<rect x="478.628" y="67.4437" width="15.0009" height="12.1883" transform="rotate(-15 478.628 67.4437)" fill="#E0D1DB"/>
</g>
<mask id="mask48_0_1096" style="mask-type:alpha" maskUnits="userSpaceOnUse" x="480" y="107" width="16" height="16">
<circle cx="487.814" cy="115.121" r="7.50047" transform="rotate(-15 487.814 115.121)" fill="#D9D9D9"/>
</mask>
<g mask="url(#mask48_0_1096)">
<rect x="478.628" y="109.817" width="15.0009" height="12.1883" transform="rotate(-15 478.628 109.817)" fill="#E0D1DB"/>
</g>
<mask id="mask49_0_1096" style="mask-type:alpha" maskUnits="userSpaceOnUse" x="480" y="149" width="16" height="16">
<circle cx="487.814" cy="157.495" r="7.50047" transform="rotate(-15 487.814 157.495)" fill="#D9D9D9"/>
</mask>
<g mask="url(#mask49_0_1096)">
<rect x="478.628" y="152.191" width="15.0009" height="12.1883" transform="rotate(-15 478.628 152.191)" fill="#E0D1DB"/>
</g>
<mask id="mask50_0_1096" style="mask-type:alpha" maskUnits="userSpaceOnUse" x="480" y="192" width="16" height="16">
<circle cx="487.814" cy="199.869" r="7.50047" transform="rotate(-15 487.814 199.869)" fill="#D9D9D9"/>
</mask>
<g mask="url(#mask50_0_1096)">
<rect x="478.628" y="194.565" width="15.0009" height="12.1883" transform="rotate(-15 478.628 194.565)" fill="#E0D1DB"/>
</g>
<mask id="mask51_0_1096" style="mask-type:alpha" maskUnits="userSpaceOnUse" x="480" y="234" width="16" height="16">
<circle cx="487.814" cy="242.242" r="7.50047" transform="rotate(-15 487.814 242.242)" fill="#D9D9D9"/>
</mask>
<g mask="url(#mask51_0_1096)">
<rect x="478.628" y="236.939" width="15.0009" height="12.1883" transform="rotate(-15 478.628 236.939)" fill="#E0D1DB"/>
</g>
<mask id="mask52_0_1096" style="mask-type:alpha" maskUnits="userSpaceOnUse" x="480" y="277" width="16" height="16">
<circle cx="487.814" cy="284.616" r="7.50047" transform="rotate(-15 487.814 284.616)" fill="#D9D9D9"/>
</mask>
<g mask="url(#mask52_0_1096)">
<rect x="478.628" y="279.312" width="15.0009" height="12.1883" transform="rotate(-15 478.628 279.312)" fill="#E0D1DB"/>
</g>
</g>
</svg>
